<?xml version="1.0" standalone="no"?>
<!DOCTYPE svg PUBLIC "-//W3C//DTD SVG 20010904//EN"
 "http://www.w3.org/TR/2001/REC-SVG-20010904/DTD/svg10.dtd">
<svg version="1.0" xmlns="http://www.w3.org/2000/svg"
 width="700.000000pt" height="700.000000pt" viewBox="0 0 700.000000 700.000000"
 preserveAspectRatio="xMidYMid meet">
<metadata>
Created by potrace 1.14, written by Peter Selinger 2001-2017
</metadata>
<g transform="translate(0.000000,700.000000) scale(0.100000,-0.100000)"
fill="#000000" stroke="none">
<path d="M3298 6295 c-2 -1 -34 -6 -73 -9 -38 -4 -81 -9 -95 -11 -14 -2 -45
-7 -70 -10 -49 -7 -222 -43 -225 -47 -1 -2 -23 -40 -49 -84 -255 -432 -696
-690 -1194 -698 l-113 -1 -47 -50 c-61 -65 -232 -276 -232 -288 0 -2 -29 -47
-65 -101 -62 -94 -165 -291 -214 -406 -12 -30 -27 -64 -32 -75 -5 -11 -25 -69
-45 -128 -31 -97 -34 -111 -21 -125 31 -35 117 -211 151 -310 19 -56 35 -106
35 -110 0 -4 5 -27 10 -52 6 -25 13 -61 16 -80 11 -64 14 -324 4 -385 -5 -33
-11 -72 -13 -87 -21 -134 -113 -369 -190 -481 l-27 -39 41 -120 c124 -365 320
-696 582 -983 l47 -51 92 1 c222 3 513 -72 689 -178 50 -30 144 -90 150 -97 3
-3 27 -23 55 -45 133 -107 264 -266 339 -411 26 -50 28 -52 94 -67 79 -19 113
-25 167 -32 22 -3 58 -8 80 -12 83 -13 115 -14 315 -17 113 -2 239 0 280 5
142 15 175 19 205 24 51 9 189 36 205 41 8 2 28 27 44 56 117 210 267 373 466
505 222 147 479 225 757 228 120 1 114 -3 241 155 238 294 394 577 503 910
l28 85 -25 40 c-64 103 -152 308 -168 390 -2 11 -9 38 -14 60 -29 111 -38 375
-17 501 31 194 94 365 191 524 l34 55 -44 125 c-108 309 -238 549 -439 809
-44 57 -104 129 -133 160 l-53 56 -103 1 c-127 1 -198 9 -308 35 -294 69 -555
228 -758 464 -28 32 -122 163 -122 170 0 4 -56 100 -66 114 -3 4 -49 14 -149
32 -64 12 -75 14 -145 23 -25 4 -61 9 -80 12 -37 6 -486 14 -492 9z m345 -361
c321 -67 549 -343 551 -669 1 -159 -23 -252 -97 -376 -94 -158 -234 -260 -437
-321 -68 -20 -270 -16 -345 6 -252 77 -430 260 -493 510 -25 95 -24 258 2 351
70 252 293 456 549 504 66 13 199 10 270 -5z m-1551 -868 c115 -14 247 -75
347 -161 218 -188 300 -488 205 -759 -138 -397 -587 -582 -967 -398 -239 117
-388 355 -389 621 -1 53 2 107 5 121 51 241 192 426 398 519 133 60 243 76
401 57z m3084 -11 c76 -17 161 -55 230 -100 52 -35 174 -151 174 -166 0 -4 6
-14 14 -21 25 -25 85 -163 101 -232 73 -314 -77 -640 -361 -784 -337 -171
-751 -43 -932 288 -191 350 -49 791 311 964 144 70 304 87 463 51z m-1533
-1238 c77 -35 132 -89 170 -166 28 -58 32 -75 32 -151 0 -76 -4 -93 -33 -152
-38 -77 -92 -130 -171 -167 -47 -22 -70 -26 -141 -26 -70 1 -94 5 -140 27 -81
38 -134 89 -171 164 -62 125 -43 277 47 383 97 113 270 151 407 88z m-1552
-501 c108 -15 238 -72 329 -144 227 -182 319 -488 229 -762 -105 -320 -424
-522 -755 -478 -231 31 -431 174 -538 385 -57 113 -85 291 -64 403 5 25 11 57
13 71 8 43 32 104 66 168 137 256 424 398 720 357z m3033 0 c197 -27 384 -155
492 -336 255 -429 -7 -973 -506 -1048 -233 -35 -484 66 -639 255 -114 140
-175 352 -149 518 4 28 10 65 13 84 14 85 94 233 172 316 108 114 272 198 412
212 31 3 57 6 58 7 5 4 96 -1 147 -8z m-1460 -887 c174 -42 324 -149 421 -299
116 -179 144 -396 79 -600 -21 -62 -32 -85 -80 -160 -269 -423 -899 -423
-1169 0 -131 204 -149 462 -48 678 93 199 300 359 503 389 19 3 36 6 38 8 12
11 190 0 256 -16z"/>
<path d="M4905 4994 c-234 -41 -427 -212 -497 -439 -26 -84 -30 -252 -9 -330
80 -290 332 -484 621 -477 121 2 187 19 295 75 89 46 211 173 257 267 129 263
68 578 -149 760 -152 128 -330 177 -518 144z"/>
<path d="M1918 3245 c-2 -2 -19 -5 -38 -8 -56 -7 -145 -42 -211 -83 -150 -90
-264 -256 -295 -424 -10 -58 -7 -195 6 -252 49 -215 236 -409 447 -466 151
-40 311 -24 453 46 93 45 220 167 267 257 137 262 89 557 -124 762 -69 66
-186 130 -278 153 -44 11 -219 23 -227 15z"/>
<path d="M4916 3243 c-2 -2 -16 -6 -32 -9 -52 -8 -148 -47 -203 -82 -193 -122
-302 -323 -296 -549 7 -280 193 -517 465 -592 60 -17 95 -20 185 -17 113 4
179 20 272 68 104 52 227 182 278 293 52 112 69 298 39 415 -75 285 -331 481
-625 477 -44 -1 -81 -3 -83 -4z"/>
<path d="M3365 2366 c-217 -49 -396 -213 -466 -428 -27 -83 -34 -240 -13 -326
65 -278 294 -470 579 -488 309 -20 586 191 650 496 18 83 13 227 -10 305 -63
213 -234 378 -451 435 -83 21 -208 24 -289 6z"/>
</g>
</svg>
