<svg viewBox="0 0 100 100" xmlns="http://www.w3.org/2000/svg">
  <defs>
    <radialGradient id="a">
      <stop stop-color="rgb(1, 60, 60)" offset="0" />
      <stop stop-color="rgb(1, 60, 60)" offset="1" />
    </radialGradient>
    <style>
      <![CDATA[
      svg {
        overflow: hidden;
      }

      circle:nth-last-of-type(-n+3) {
        opacity: 0;
        animation: 3s linear 1s infinite alternate f;
      }

      @keyframes f {
        0% {
          opacity: 0
        }

        100% {
          opacity: 1
        }
      }
      ]]>
    </style>
  </defs>

  <circle cx="71.6" cy="37.5" r="9" fill="rgb(1, 104, 104)"></circle>
  <circle cx="71.6" cy="37.5" r="6" fill="rgb(1, 87, 87)"></circle>
  <circle cx="71.6" cy="37.5" r="5" fill="rgb(1, 121, 121)"></circle>

  <circle cx="71.6" cy="62.6" r="9" fill="rgb(1, 104, 104)"></circle>
  <circle cx="71.6" cy="62.6" r="6" fill="rgb(1, 87, 87)"></circle>
  <circle cx="71.6" cy="62.6" r="5" fill="rgb(1, 121, 121)"></circle>

  <circle cx="50" cy="75" r="9" fill="rgb(1, 104, 104)"></circle>
  <circle cx="50" cy="75" r="6" fill="rgb(1, 87, 87)"></circle>
  <circle cx="50" cy="75" r="5" fill="rgb(1, 121, 121)"></circle>

  <path d="m88.408 38.831c-1.823-6.278-5.14-11.916-9.545-16.508-3.834 0.265-7.785-0.568-11.363-2.634-3.583-2.069-6.283-5.079-7.97-8.537-3.055-0.747-6.245-1.152-9.53-1.152s-6.475 0.405-9.53 1.152c-1.687 3.459-4.387 6.469-7.97 8.537-3.578 2.066-7.529 2.899-11.363 2.634-4.405 4.592-7.722 10.23-9.545 16.508 2.151 3.189 3.408 7.032 3.408 11.169s-1.257 7.98-3.408 11.169c1.823 6.278 5.14 11.916 9.545 16.508 3.834-0.265 7.785 0.568 11.363 2.634 3.583 2.069 6.283 5.079 7.97 8.538 3.055 0.746 6.245 1.151 9.53 1.151s6.475-0.405 9.53-1.152c1.687-3.459 4.387-6.469 7.97-8.538 3.578-2.066 7.529-2.899 11.363-2.634 4.405-4.592 7.722-10.23 9.545-16.508-2.151-3.188-3.408-7.031-3.408-11.168s1.257-7.98 3.408-11.169zm-25.417-6.331c2.761-4.783 8.877-6.421 13.659-3.66 4.783 2.761 6.421 8.877 3.66 13.659-2.761 4.783-8.877 6.421-13.659 3.66-4.783-2.761-6.421-8.877-3.66-13.659zm-25.984 35c-2.761 4.783-8.877 6.421-13.659 3.66-4.783-2.761-6.421-8.877-3.66-13.659 2.761-4.783 8.877-6.421 13.659-3.66 4.783 2.761 6.422 8.876 3.66 13.659zm-8.659-20.001c-5.522 0-9.999-4.477-9.999-9.999s4.477-9.999 9.999-9.999 9.999 4.477 9.999 9.999-4.477 9.999-9.999 9.999zm26.651 36.161c-4.783 2.762-10.898 1.123-13.659-3.66s-1.123-10.898 3.66-13.659 10.898-1.123 13.659 3.66 1.122 10.898-3.66 13.659zm-9.999-33.66c0-2.761 2.239-5 5-5s5 2.239 5 5-2.239 5-5 5-5-2.239-5-5zm9.999-16.341c-4.783 2.761-10.898 1.123-13.659-3.66-2.762-4.783-1.123-10.898 3.66-13.659s10.898-1.123 13.659 3.66c2.761 4.782 1.122 10.897-3.66 13.659zm16.652 38.841c-5.522 0-9.999-4.477-9.999-9.999s4.477-9.999 9.999-9.999 9.999 4.477 9.999 9.999-4.477 9.999-9.999 9.999z" fill="url(#a)"></path>
</svg>